<?xml version="1.0" standalone="no"?>
<!DOCTYPE svg PUBLIC "-//W3C//DTD SVG 20010904//EN"
 "http://www.w3.org/TR/2001/REC-SVG-20010904/DTD/svg10.dtd">
<svg version="1.0" xmlns="http://www.w3.org/2000/svg"
 width="512.000000pt" height="512.000000pt" viewBox="0 0 512.000000 512.000000"
 preserveAspectRatio="xMidYMid meet">
<metadata>
Created by potrace 1.11, written by Peter Selinger 2001-2013
</metadata>
<g transform="translate(0.000000,512.000000) scale(0.100000,-0.100000)"
fill="#000000" stroke="none">
<path d="M2145 4447 c-5 -7 -25 -29 -42 -50 -18 -21 -33 -44 -33 -52 0 -10
416 -506 449 -535 3 -3 37 -40 74 -82 l68 -77 82 92 c72 80 115 130 227 261
14 16 30 34 36 40 5 6 67 77 138 159 l127 147 -52 55 -52 55 -506 0 c-386 -1
-508 -4 -516 -13z"/>
<path d="M906 4298 c4 -13 60 -180 124 -373 l117 -350 124 -41 c121 -41 542
-176 587 -189 17 -5 22 -2 22 11 0 9 -52 172 -116 363 l-115 346 -84 33 c-85
34 -586 203 -638 216 -26 6 -28 5 -21 -16z"/>
<path d="M3644 3976 l-224 -225 0 -215 0 -216 220 0 221 0 219 220 220 220 0
220 0 220 -216 0 -216 0 -224 -224z"/>
<path d="M3853 2843 l-123 -126 0 -158 0 -158 124 -125 124 -126 172 0 173 0
124 126 123 127 0 159 0 160 -124 124 -125 124 -173 0 -173 0 -122 -127z"/>
<path d="M676 2822 l-56 -57 0 -205 c0 -113 4 -209 8 -215 4 -5 30 -31 59 -57
l52 -48 371 0 c284 0 374 3 383 13 7 6 31 34 55 61 l42 49 0 204 c0 152 -3
207 -13 216 -7 7 -34 31 -60 55 l-47 42 -369 0 -370 -1 -55 -57z"/>
<path d="M1303 1755 l-163 -164 0 -148 0 -148 128 -128 127 -127 153 0 152 0
160 160 160 160 0 161 0 161 -120 119 -121 119 -157 -1 -157 0 -162 -164z"/>
<path d="M3840 1873 c-273 -49 -395 -74 -406 -85 -7 -7 -29 -112 -50 -233
l-37 -219 36 -31 c20 -17 128 -93 241 -168 l205 -137 197 0 196 0 -6 197 c-6
234 1 213 -176 478 -109 162 -144 206 -164 204 -6 -1 -22 -4 -36 -6z"/>
</g>
</svg>
